Normalized EMG Linear Envelopes
nRows=21
nColumns=17

endheader
time	        VM	        VL	        RF	       GRA	        TA	   ADDLONG	   SEMIMEM	      BFLH	        GM	        GL	       TFL	   GLUTMAX	   GLUTMED	      PIRI	    OBTINT	        QF	
1.645	  0.502256	  0.297380	  0.089352	  0.275571	  0.048544	  0.176492	  0.392876	  0.227994	  0.221455	  0.153073	  0.122294	  0.163004	  0.104850	  0.182959	  0.209736	  0.434827	
1.6455	  0.504654	  0.300175	  0.091270	  0.273569	  0.048817	  0.177185	  0.387433	  0.224324	  0.219334	  0.153037	  0.124526	  0.163266	  0.105880	  0.182142	  0.208236	  0.430240	
1.646	  0.506993	  0.302954	  0.093209	  0.271603	  0.049095	  0.177878	  0.382008	  0.220677	  0.217213	  0.153005	  0.126771	  0.163534	  0.106918	  0.181330	  0.206766	  0.425677	
1.6465	  0.509271	  0.305715	  0.095170	  0.269674	  0.049380	  0.178573	  0.376601	  0.217054	  0.215092	  0.152978	  0.129026	  0.163807	  0.107966	  0.180525	  0.205327	  0.421140	
1.647	  0.511486	  0.308457	  0.097152	  0.267782	  0.049671	  0.179269	  0.371217	  0.213457	  0.212972	  0.152955	  0.131291	  0.164087	  0.109021	  0.179725	  0.203920	  0.416630	
1.6475	  0.513635	  0.311180	  0.099154	  0.265928	  0.049967	  0.179968	  0.365857	  0.209886	  0.210856	  0.152937	  0.133565	  0.164371	  0.110083	  0.178930	  0.202544	  0.412149	
1.648	  0.515716	  0.313881	  0.101177	  0.264112	  0.050270	  0.180668	  0.360524	  0.206342	  0.208743	  0.152926	  0.135847	  0.164659	  0.111151	  0.178140	  0.201200	  0.407698	
1.6485	  0.517725	  0.316561	  0.103220	  0.262334	  0.050578	  0.181372	  0.355219	  0.202828	  0.206634	  0.152920	  0.138136	  0.164951	  0.112225	  0.177355	  0.199888	  0.403278	
1.649	  0.519661	  0.319218	  0.105282	  0.260595	  0.050893	  0.182078	  0.349945	  0.199343	  0.204532	  0.152921	  0.140431	  0.165247	  0.113303	  0.176573	  0.198609	  0.398891	
1.6495	  0.521521	  0.321850	  0.107363	  0.258895	  0.051213	  0.182787	  0.344704	  0.195889	  0.202436	  0.152930	  0.142731	  0.165545	  0.114385	  0.175794	  0.197364	  0.394538	
1.65	  0.523301	  0.324457	  0.109463	  0.257235	  0.051539	  0.183500	  0.339499	  0.192467	  0.200349	  0.152946	  0.145036	  0.165845	  0.115470	  0.175019	  0.196152	  0.390221	
1.6505	  0.525001	  0.327037	  0.111582	  0.255615	  0.051871	  0.184216	  0.334329	  0.189077	  0.198270	  0.152971	  0.147344	  0.166146	  0.116556	  0.174245	  0.194975	  0.385942	
1.651	  0.526616	  0.329589	  0.113718	  0.254035	  0.052209	  0.184936	  0.329199	  0.185722	  0.196202	  0.153004	  0.149653	  0.166448	  0.117645	  0.173474	  0.193832	  0.381701	
1.6515	  0.528146	  0.332111	  0.115871	  0.252496	  0.052553	  0.185659	  0.324109	  0.182402	  0.194146	  0.153046	  0.151964	  0.166749	  0.118733	  0.172703	  0.192725	  0.377499	
1.652	  0.529587	  0.334602	  0.118041	  0.251000	  0.052902	  0.186387	  0.319062	  0.179117	  0.192101	  0.153097	  0.154275	  0.167050	  0.119822	  0.171933	  0.191653	  0.373338	
1.6525	  0.530937	  0.337060	  0.120227	  0.249545	  0.053258	  0.187119	  0.314059	  0.175869	  0.190071	  0.153158	  0.156584	  0.167348	  0.120909	  0.171163	  0.190619	  0.369218	
1.653	  0.532194	  0.339484	  0.122428	  0.248133	  0.053620	  0.187856	  0.309101	  0.172658	  0.188055	  0.153229	  0.158892	  0.167644	  0.121995	  0.170394	  0.189621	  0.365140	
1.6535	  0.533354	  0.341872	  0.124645	  0.246764	  0.053989	  0.188599	  0.304191	  0.169486	  0.186056	  0.153310	  0.161196	  0.167935	  0.123078	  0.169624	  0.188660	  0.361106	
1.654	  0.534415	  0.344223	  0.126877	  0.245438	  0.054363	  0.189346	  0.299331	  0.166352	  0.184073	  0.153402	  0.163495	  0.168223	  0.124158	  0.168853	  0.187738	  0.357116	
1.6545	  0.535373	  0.346534	  0.129122	  0.244157	  0.054744	  0.190100	  0.294521	  0.163258	  0.182108	  0.153504	  0.165788	  0.168504	  0.125235	  0.168082	  0.186853	  0.353170	
1.655	  0.536227	  0.348803	  0.131381	  0.242920	  0.055132	  0.190861	  0.289764	  0.160205	  0.180161	  0.153617	  0.168075	  0.168780	  0.126307	  0.167310	  0.186007	  0.349270	
